# Created by Kenney (www.kenney.nl)

mtllib animal-fish.mtl

g body

v 0.5 0.30625 -0.3125 1 1 1
v 0.5 0.30625 -0.5000001 1 1 1
v 0.3124999 0.18125 -0.3125 1 1 1
v 0.3125 0.18125 0.3125 1 1 1
v 0.5 0.30625 0.3125 1 1 1
v 0.5 0.30625 0.5 1 1 1
v -0.3125 0.18125 0.3125 1 1 1
v -0.3125 0.18125 -0.3125 1 1 1
v 0.5 1.30625 0.3125 1 1 1
v 0.5 1.30625 0.5 1 1 1
v 0.3125 1.43125 0.3125 1 1 1
v 0.5 1.30625 -0.3125 1 1 1
v 0.3125 1.43125 -0.3125 1 1 1
v 0.5 1.30625 -0.5000001 1 1 1
v -0.5000001 1.30625 0.3125 1 1 1
v -0.3125 1.43125 0.3125 1 1 1
v -0.5000001 1.30625 0.5 1 1 1
v -0.3125 1.43125 -0.3125 1 1 1
v -0.5000001 1.30625 -0.3125 1 1 1
v -0.5000001 1.30625 -0.5000001 1 1 1
v -0.5000001 0.30625 0.3125 1 1 1
v -0.5000001 0.30625 0.5 1 1 1
v -0.5000001 0.30625 -0.3125 1 1 1
v -0.5000001 0.30625 -0.5000001 1 1 1
v -0.3125 0.49375 -0.6250001 1 1 1
v 0.3125 0.49375 -0.6250001 1 1 1
v 0.6249999 1.11875 -0.3125 1 1 1
v 0.6249999 0.49375 -0.3125 1 1 1
v 0.625 1.11875 0.3125 1 1 1
v 0.625 0.49375 0.3125 1 1 1
v -0.625 0.49375 -0.3125 1 1 1
v -0.625 1.11875 -0.3125 1 1 1
v -0.625 0.49375 0.3125 1 1 1
v -0.625 1.11875 0.3125 1 1 1
v 0.3125 1.11875 -0.6250001 1 1 1
v 0.3125 0.49375 0.6249999 1 1 1
v -0.3125 0.49375 0.6249999 1 1 1
v -0.3125 1.11875 -0.6250001 1 1 1
v 0.3125 1.11875 0.6249999 1 1 1
v -0.3125 1.11875 0.6249999 1 1 1
v 0.07500002 1.732182 -0.3776262 1 1 1
v 0.07500002 1.631317 0.1152747 1 1 1
v -0.07499998 1.732182 -0.3776262 1 1 1
v -0.07499999 1.631317 0.1152747 1 1 1
v -0.15 1.261294 -0.2514519 1 1 1
v -0.15 1.647019 -0.3548067 1 1 1
v -0.15 1.377762 0.1832147 1 1 1
v -0.15 1.650322 -0.3516959 1 1 1
v -0.15 1.562112 0.07936528 1 1 1
v -0.15 1.49352 0.1521974 1 1 1
v 0.07500002 1.533511 0.2191275 1 1 1
v -0.07499999 1.533511 0.2191275 1 1 1
v 0.07500001 1.324729 0.2750705 1 1 1
v 0.07500001 1.169438 -0.3044849 1 1 1
v -0.07499999 1.324729 0.2750705 1 1 1
v -0.07499999 1.169438 -0.3044849 1 1 1
v 0.07500002 1.667998 -0.4380737 1 1 1
v -0.07499998 1.667998 -0.4380737 1 1 1
v 0.15 1.49352 0.1521974 1 1 1
v 0.15 1.377762 0.1832147 1 1 1
v 0.15 1.647019 -0.3548067 1 1 1
v 0.15 1.261293 -0.2514519 1 1 1
v 0.15 1.650322 -0.3516959 1 1 1
v 0.15 1.562112 0.07936528 1 1 1
v -0.3276387 0.13125 -0.2083334 1 1 1
v 0.3276388 0.13125 -0.2083334 1 1 1
v -0.5360555 0.2701945 -0.2083334 1 1 1
v 0.5360555 0.2701945 -0.2083334 1 1 1
v -0.675 0.4786112 -0.2083334 1 1 1
v 0.675 0.4786112 -0.2083334 1 1 1
v -0.675 1.133889 -0.2083334 1 1 1
v 0.675 1.133889 -0.2083334 1 1 1
v 0.5360555 1.342306 -0.2083334 1 1 1
v -0.5360555 1.342306 -0.2083334 1 1 1
v -0.3276388 1.48125 -0.2083334 1 1 1
v 0.3276388 1.48125 -0.2083334 1 1 1
v -0.3276387 0.13125 0.2083333 1 1 1
v -0.5360555 0.2701945 0.2083333 1 1 1
v 0.3276388 0.13125 0.2083333 1 1 1
v 0.5360555 0.2701945 0.2083333 1 1 1
v -0.675 0.4786112 0.2083333 1 1 1
v 0.675 0.4786112 0.2083333 1 1 1
v -0.675 1.133889 0.2083333 1 1 1
v 0.675 1.133889 0.2083333 1 1 1
v 0.5360555 1.342306 0.2083333 1 1 1
v -0.5360555 1.342306 0.2083333 1 1 1
v -0.3276388 1.48125 0.2083333 1 1 1
v 0.3276388 1.48125 0.2083333 1 1 1
v 0.2624998 0.69375 0.6349999 1 1 1
v 0.1210785 0.7523286 0.6349999 1 1 1
v 0.4039212 0.7523286 0.6349999 1 1 1
v 0.182708 0.7735418 0.6349999 1 1 1
v 0.09770799 0.80875 0.6349999 1 1 1
v 0.267708 0.80875 0.6349999 1 1 1
v 0.4624998 0.89375 0.6349999 1 1 1
v 0.3029161 0.89375 0.6349999 1 1 1
v 0.4039212 1.035171 0.6349999 1 1 1
v 0.267708 0.97875 0.6349999 1 1 1
v 0.182708 1.013958 0.6349999 1 1 1
v 0.1210785 1.035171 0.6349999 1 1 1
v 0.2624998 1.09375 0.6349999 1 1 1
v 0.09770799 0.97875 0.6349999 1 1 1
v -0.2625 0.69375 0.6349999 1 1 1
v -0.4039214 0.7523286 0.6349999 1 1 1
v -0.1210787 0.7523286 0.6349999 1 1 1
v -0.1827082 0.7735418 0.6349999 1 1 1
v -0.0977082 0.80875 0.6349999 1 1 1
v -0.2677082 0.80875 0.6349999 1 1 1
v -0.4625 0.89375 0.6349999 1 1 1
v -0.3029163 0.89375 0.6349999 1 1 1
v -0.2677082 0.97875 0.6349999 1 1 1
v -0.4039214 1.035171 0.6349999 1 1 1
v -0.1827082 1.013958 0.6349999 1 1 1
v -0.1210787 1.035171 0.6349999 1 1 1
v -0.0977082 0.97875 0.6349999 1 1 1
v -0.2625 1.09375 0.6349999 1 1 1
v 0.06249982 0.89375 0.6349999 1 1 1
v -0.06250003 0.89375 0.6349999 1 1 1
v 0.07094304 0.7023286 0.6349999 1 1 1
v 0.09295534 0.7023286 0.6349999 1 1 1
v 0.06071535 0.67944 0.6349999 1 1 1
v 0.1096052 0.6766522 0.6349999 1 1 1
v 0.03388317 0.657279 0.6349999 1 1 1
v 0.09813179 0.6509757 0.6349999 1 1 1
v 1.573182E-08 0.6493415 0.6349999 1 1 1
v 0.05476401 0.6151578 0.6349999 1 1 1
v -0.09813176 0.6509757 0.6349999 1 1 1
v -0.03388314 0.657279 0.6349999 1 1 1
v -0.05476398 0.6151578 0.6349999 1 1 1
v 1.573182E-08 0.6023287 0.6349999 1 1 1
v -0.1096052 0.6766522 0.6349999 1 1 1
v -0.06071533 0.67944 0.6349999 1 1 1
v -0.09295531 0.7023286 0.6349999 1 1 1
v -0.07094301 0.7023286 0.6349999 1 1 1

vn 0.7071068 -0.7071068 0
vn 0.5773503 -0.5773503 -0.5773503
vn 0.223241 -0.9488556 -0.2232411
vn 0.223241 -0.9488556 0.223241
vn 0.5773503 -0.5773503 0.5773503
vn -0.2232411 -0.9488556 0.2232411
vn -0.2232411 -0.9488556 -0.2232411
vn 0.7071068 0.7071068 0
vn 0.5773503 0.5773503 0.5773503
vn 0.2232411 0.9488556 0.2232411
vn 0.2232411 0.9488556 -0.2232411
vn 0.5773503 0.5773503 -0.5773503
vn -0.7071068 0.7071068 0
vn -0.223241 0.9488556 0.2232411
vn -0.5773503 0.5773503 0.5773503
vn -0.223241 0.9488556 -0.2232411
vn -0.5773503 0.5773503 -0.5773503
vn -0.7071068 -0.7071068 0
vn -0.5773503 -0.5773503 0.5773503
vn -0.5773503 -0.5773503 -0.5773503
vn -0.2232411 -0.2232411 -0.9488556
vn 0.2232411 -0.2232411 -0.9488556
vn 0.9488556 0.2232411 -0.2232411
vn 0.9488556 -0.2232411 -0.2232411
vn 0.9488556 0.2232411 0.2232411
vn 0.9488556 -0.2232411 0.2232411
vn -0.9488556 -0.223241 -0.223241
vn -0.9488556 0.223241 -0.223241
vn -0.9488556 -0.223241 0.223241
vn -0.9488556 0.223241 0.223241
vn 0.9488556 -0.223241 -0.223241
vn 0.9488556 0.223241 -0.223241
vn 0.2232411 0.2232411 -0.9488556
vn 0.2232411 -0.2232411 0.9488556
vn -0.2232411 -0.2232411 0.9488556
vn -0.2232411 0.2232411 -0.9488556
vn 0.2232411 0.2232411 0.9488556
vn -0.2232411 0.2232411 0.9488556
vn 0.3718133 0.8849705 -0.2803248
vn 0.368997 0.824985 0.4280663
vn -0.3718133 0.8849705 -0.2803248
vn -0.368997 0.824985 0.4280663
vn -0.9054101 -0.3676608 -0.2122691
vn -0.8969387 0.1080243 -0.4287558
vn -0.9054101 -0.2122691 0.3676608
vn -0.8969387 0.4215132 -0.1335193
vn -0.9040395 0.3794138 0.1968693
vn -0.9040395 0.2192484 0.3669367
vn 0.3689971 0.4767265 0.7978553
vn -0.368997 0.4767265 0.7978553
vn 0.3913613 -0.4601185 0.7969486
vn 0.3913613 -0.7969486 -0.4601185
vn -0.3913614 -0.4601185 0.7969486
vn -0.3913614 -0.7969486 -0.4601185
vn 0.3718133 0.226798 -0.9001763
vn -0.3718133 0.226798 -0.9001763
vn 0.9040395 0.2192484 0.3669367
vn 0.9054101 -0.2122691 0.3676608
vn 0.8969387 0.1080243 -0.4287558
vn 0.9054101 -0.3676608 -0.2122691
vn 0.8969387 0.4215132 -0.1335193
vn 0.9040395 0.3794138 0.1968693
vn 0 0 -1
vn 0 0 1
vn 0.7071068 0.7071068 0
vn 0.957092 0.2897842 0
vn 0.2897841 0.9570921 0
vn 0.957092 -0.2897842 0
vn -0.2897842 0.957092 0
vn 0.7071068 -0.7071068 0
vn 0.2897842 -0.957092 0
vn -0.2897841 -0.9570921 0
vn -0.7071068 0.7071068 0
vn -0.957092 0.2897842 0
vn -0.957092 -0.2897842 0
vn -0.7071068 -0.7071068 0

vt 0.46875 0.045
vt 0.46875 0.025
vt 0.46875 0.02500001
vt 0.46875 0.205
vt 0.46875 0.225
vt 0.46875 0.075
vt 0.46875 0.175
vt 0.46875 0.129
vt 0.46875 0.025
vt 0.46875 0.1873817
vt 0.46875 0.1883995
vt 0.46875 0.1044437
vt 0.46875 0.06813238
vt 0.46875 0.07722291
vt 0.46875 0.07722291
vt 0.46875 0.2052229
vt 0.09375 0.275
vt 0.09375 0.2955844
vt 0.09375 0.3264609
vt 0.09375 0.4235391
vt 0.09375 0.4544156
vt 0.09375 0.475
vt 0.09375 0.475
vt 0.09375 0.395
vt 0.09375 0.4067158
vt 0.09375 0.4109583
vt 0.09375 0.418
vt 0.09375 0.435
vt 0.09375 0.4632843
vt 0.09375 0.452
vt 0.09375 0.4590416
vt 0.84375 0.1609584
vt 0.84375 0.168
vt 0.84375 0.185
vt 0.84375 0.202
vt 0.84375 0.2090416
vt 0.84375 0.105
vt 0.84375 0.0866891
vt 0.84375 0.08445882
vt 0.84375 0.06896034
vt 0.84375 0.06391764
vt 0.84375 0.06261028
vt 0.84375 0.03526335
vt 0.84375 0.025

usemtl colormap

f 3/2/3 2/1/2 1/1/1
f 1/1/1 4/2/4 3/2/3
f 4/2/4 1/1/1 5/1/1
f 4/2/4 5/1/1 6/1/5
f 7/3/6 3/2/3 4/2/4
f 3/2/3 7/3/6 8/3/7
f 11/5/10 10/4/9 9/4/8
f 12/4/8 11/5/10 9/4/8
f 11/5/10 12/4/8 13/5/11
f 13/5/11 12/4/8 14/4/12
f 17/4/15 16/5/14 15/4/13
f 18/5/16 15/4/13 16/5/14
f 15/4/13 18/5/16 19/4/13
f 19/4/13 18/5/16 20/4/17
f 22/1/19 21/1/18 7/3/6
f 21/1/18 8/3/7 7/3/6
f 8/3/7 21/1/18 23/1/18
f 23/1/18 24/1/20 8/3/7
f 25/6/21 2/1/2 24/1/20
f 2/1/2 25/6/21 26/6/22
f 11/5/10 17/4/15 10/4/9
f 17/4/15 11/5/10 16/5/14
f 3/2/3 24/1/20 2/1/2
f 24/1/20 3/2/3 8/3/7
f 29/7/25 28/6/24 27/7/23
f 28/6/24 29/7/25 30/6/26
f 33/6/29 32/7/28 31/6/27
f 32/7/28 33/6/29 34/7/30
f 22/1/19 33/6/29 21/1/18
f 31/6/27 21/1/18 33/6/29
f 21/1/18 31/6/27 23/1/18
f 31/6/27 24/1/20 23/1/18
f 22/1/19 34/7/30 33/6/29
f 34/7/30 22/1/19 17/4/15
f 33/6/32 34/7/31 22/1/12
f 17/4/2 22/1/12 34/7/31
f 26/6/22 14/4/12 2/1/2
f 14/4/12 26/6/22 35/7/33
f 36/6/34 22/1/19 6/1/5
f 22/1/19 36/6/34 37/6/35
f 10/4/9 29/7/25 9/4/8
f 29/7/25 12/4/8 9/4/8
f 12/4/8 29/7/25 27/7/23
f 12/4/8 27/7/23 14/4/12
f 20/4/17 35/7/33 38/7/36
f 35/7/33 20/4/17 14/4/12
f 6/1/5 5/1/1 30/6/26
f 1/1/1 30/6/26 5/1/1
f 30/6/26 1/1/1 28/6/24
f 1/1/1 2/1/2 28/6/24
f 20/4/17 25/6/21 24/1/20
f 25/6/21 20/4/17 38/7/36
f 10/4/9 30/6/26 29/7/25
f 30/6/26 10/4/9 6/1/5
f 27/7/23 2/1/2 14/4/12
f 2/1/2 27/7/23 28/6/24
f 31/6/27 20/4/17 24/1/20
f 20/4/17 31/6/27 32/7/28
f 20/4/17 13/5/11 14/4/12
f 13/5/11 20/4/17 18/5/16
f 10/4/9 36/6/34 6/1/5
f 36/6/34 10/4/9 39/7/37
f 10/4/9 40/7/38 39/7/37
f 40/7/38 10/4/9 17/4/15
f 32/7/28 19/4/13 20/4/17
f 32/7/28 15/4/13 19/4/13
f 15/4/13 32/7/28 34/7/30
f 17/4/15 15/4/13 34/7/30
f 38/7/36 26/6/22 25/6/21
f 26/6/22 38/7/36 35/7/33
f 39/7/37 37/6/35 36/6/34
f 37/6/35 39/7/37 40/7/38
f 37/6/35 17/4/15 22/1/19
f 17/4/15 37/6/35 40/7/38
f 13/5/11 16/5/14 11/5/10
f 16/5/14 13/5/11 18/5/16
f 22/1/19 4/2/4 6/1/5
f 4/2/4 22/1/19 7/3/6
f 43/5/41 42/8/40 41/5/39
f 42/8/40 43/5/41 44/8/42
f 47/9/45 46/10/44 45/9/43
f 46/10/44 47/9/45 48/11/46
f 48/11/46 47/9/45 49/12/47
f 49/12/47 47/9/45 50/13/48
f 42/8/40 52/15/50 51/14/49
f 52/15/50 42/8/40 44/8/42
f 55/9/53 54/9/52 53/9/51
f 54/9/52 55/9/53 56/9/54
f 56/9/54 57/16/55 54/9/52
f 57/16/55 56/9/54 58/16/56
f 51/14/49 60/9/58 59/13/57
f 60/9/58 51/14/49 53/9/51
f 46/10/44 43/5/41 58/16/56
f 43/5/41 46/10/44 48/11/46
f 51/14/49 55/9/53 53/9/51
f 55/9/53 51/14/49 52/15/50
f 63/11/61 62/9/60 61/10/59
f 62/9/60 63/11/61 60/9/58
f 60/9/58 63/11/61 64/12/62
f 60/9/58 64/12/62 59/13/57
f 42/8/40 59/13/57 64/12/62
f 59/13/57 42/8/40 51/14/49
f 50/13/48 44/8/42 49/12/47
f 44/8/42 50/13/48 52/15/50
f 55/9/53 45/9/43 56/9/54
f 45/9/43 55/9/53 47/9/45
f 55/9/53 50/13/48 47/9/45
f 50/13/48 55/9/53 52/15/50
f 45/9/43 58/16/56 56/9/54
f 58/16/56 45/9/43 46/10/44
f 41/5/39 61/10/59 57/16/55
f 61/10/59 41/5/39 63/11/61
f 53/9/51 62/9/60 60/9/58
f 62/9/60 53/9/51 54/9/52
f 42/8/40 63/11/61 41/5/39
f 63/11/61 42/8/40 64/12/62
f 61/10/59 54/9/52 57/16/55
f 54/9/52 61/10/59 62/9/60
f 57/16/55 43/5/41 41/5/39
f 43/5/41 57/16/55 58/16/56
f 48/11/46 44/8/42 43/5/41
f 44/8/42 48/11/46 49/12/47
f 67/18/63 66/17/63 65/17/63
f 66/17/63 67/18/63 68/18/63
f 68/18/63 67/18/63 69/19/63
f 68/18/63 69/19/63 70/19/63
f 70/19/63 69/19/63 71/20/63
f 70/19/63 71/20/63 72/20/63
f 72/20/63 71/20/63 73/21/63
f 73/21/63 71/20/63 74/21/63
f 73/21/63 74/21/63 75/22/63
f 73/21/63 75/22/63 76/23/63
f 79/17/64 78/18/64 77/17/64
f 78/18/64 79/17/64 80/18/64
f 78/18/64 80/18/64 81/19/64
f 81/19/64 80/18/64 82/19/64
f 81/19/64 82/19/64 83/20/64
f 83/20/64 82/19/64 84/20/64
f 83/20/64 84/20/64 85/21/64
f 83/20/64 85/21/64 86/21/64
f 86/21/64 85/21/64 87/22/64
f 87/22/64 85/21/64 88/23/64
f 85/21/65 72/20/66 73/21/65
f 76/23/67 85/21/65 73/21/65
f 72/20/66 85/21/65 84/20/66
f 85/21/65 76/23/67 88/23/67
f 84/20/66 70/19/68 72/20/66
f 75/22/69 88/23/67 76/23/67
f 70/19/68 84/20/66 82/19/68
f 88/23/67 75/22/69 87/22/69
f 82/19/68 68/18/70 70/19/68
f 68/18/70 82/19/68 80/18/70
f 79/17/71 68/18/70 80/18/70
f 68/18/70 79/17/71 66/17/71
f 77/17/72 66/17/71 79/17/71
f 66/17/71 77/17/72 65/17/72
f 74/21/73 87/22/69 75/22/69
f 87/22/69 74/21/73 86/21/73
f 74/21/73 83/20/74 86/21/73
f 83/20/74 74/21/73 71/20/74
f 71/20/74 81/19/75 83/20/74
f 81/19/75 71/20/74 69/19/75
f 78/18/76 65/17/72 77/17/72
f 69/19/75 78/18/76 81/19/75
f 65/17/72 78/18/76 67/18/76
f 78/18/76 69/19/75 67/18/76
f 91/25/64 90/25/64 89/24/64
f 90/25/64 91/25/64 92/26/64
f 93/27/64 90/25/64 92/26/64
f 92/26/64 91/25/64 94/27/64
f 94/27/64 91/25/64 95/28/64
f 94/27/64 95/28/64 96/28/64
f 96/28/64 95/28/64 97/29/64
f 96/28/64 97/29/64 98/30/64
f 98/30/64 97/29/64 99/31/64
f 100/29/64 99/31/64 97/29/64
f 100/29/64 97/29/64 101/23/64
f 99/31/64 100/29/64 102/30/64
f 105/25/64 104/25/64 103/24/64
f 104/25/64 105/25/64 106/26/64
f 106/26/64 105/25/64 107/27/64
f 108/27/64 104/25/64 106/26/64
f 104/25/64 108/27/64 109/28/64
f 109/28/64 108/27/64 110/28/64
f 109/28/64 110/28/64 111/30/64
f 109/28/64 111/30/64 112/29/64
f 112/29/64 111/30/64 113/31/64
f 112/29/64 113/31/64 114/29/64
f 114/29/64 113/31/64 115/30/64
f 112/29/64 114/29/64 116/23/64
f 94/33/64 93/33/64 92/32/64
f 93/33/64 94/33/64 96/34/64
f 93/33/64 96/34/64 117/34/64
f 117/34/64 96/34/64 98/35/64
f 117/34/64 98/35/64 102/35/64
f 102/35/64 98/35/64 99/36/64
f 107/33/64 108/33/64 106/32/64
f 108/33/64 107/33/64 118/34/64
f 108/33/64 118/34/64 110/34/64
f 110/34/64 118/34/64 115/35/64
f 110/34/64 115/35/64 111/35/64
f 111/35/64 115/35/64 113/36/64
f 121/38/64 120/37/64 119/37/64
f 121/38/64 122/39/64 120/37/64
f 123/40/64 122/39/64 121/38/64
f 123/40/64 124/41/64 122/39/64
f 125/42/64 124/41/64 123/40/64
f 124/41/64 125/42/64 126/43/64
f 127/41/64 126/43/64 125/42/64
f 127/41/64 125/42/64 128/40/64
f 129/43/64 126/43/64 127/41/64
f 126/43/64 129/43/64 130/44/64
f 127/41/64 128/40/64 131/39/64
f 131/39/64 128/40/64 132/38/64
f 131/39/64 132/38/64 133/37/64
f 133/37/64 132/38/64 134/37/64

g wing-left

v 0.8621753 0.44375 -0.2721626 1 1 1
v 0.8172497 0.36875 -0.227237 1 1 1
v 0.9682414 0.44375 -0.1660967 1 1 1
v 0.9233157 0.36875 -0.121171 1 1 1
v 0.5528162 0.51875 0.03719654 1 1 1
v 0.6588823 0.51875 0.1432625 1 1 1
v 0.6588822 0.36875 -0.06886948 1 1 1
v 0.7649482 0.36875 0.03719652 1 1 1
v 0.8444977 0.59375 -0.254485 1 1 1
v 0.5528162 0.66875 0.03719654 1 1 1
v 0.8621753 0.74375 -0.2721626 1 1 1
v 0.6588822 0.81875 -0.06886948 1 1 1
v 0.8172497 0.81875 -0.227237 1 1 1
v 0.9682414 0.74375 -0.1660967 1 1 1
v 0.9505637 0.59375 -0.148419 1 1 1
v 0.7649482 0.81875 0.03719652 1 1 1
v 0.6588823 0.66875 0.1432625 1 1 1
v 0.9233157 0.81875 -0.121171 1 1 1

vn 0.6817077 -0.265611 -0.6817077
vn 0.297332 -0.907297 -0.297332
vn -0.5 -0.7071068 0.5
vn -0.7071068 0 -0.7071068
vn 0.6817077 0.265611 -0.6817077
vn 0.6974859 -0.164399 -0.6974859
vn -0.5 0.7071068 0.5
vn 0.297332 0.907297 -0.297332
vn 0 1 0
vn 0.7071068 0 0.7071068
vn -0.7071068 0 0.7071068
vn 0.6974859 0.164399 -0.6974859
vn 0 -1 0

vt 0.46875 0.05833333
vt 0.46875 0.09166666
vt 0.46875 0.125
vt 0.46875 0.1583333
vt 0.46875 0.1916666

usemtl colormap

f 137/45/77 136/9/78 135/45/77
f 136/9/78 137/45/77 138/9/78
f 141/9/79 140/46/79 139/46/79
f 140/46/79 141/9/79 142/9/79
f 139/46/80 136/9/80 141/9/80
f 136/9/80 139/46/80 135/45/80
f 135/45/80 139/46/80 143/47/80
f 143/47/80 139/46/80 144/48/80
f 143/47/80 144/48/80 145/49/80
f 145/49/80 144/48/80 146/5/80
f 145/49/80 146/5/80 147/5/80
f 148/49/81 143/47/82 145/49/81
f 143/47/82 148/49/81 149/47/82
f 144/48/83 150/5/83 146/5/83
f 150/5/83 144/48/83 151/48/83
f 146/5/85 152/5/84 147/5/84
f 152/5/84 146/5/85 150/5/85
f 137/45/86 142/9/86 138/9/86
f 142/9/86 137/45/86 140/46/86
f 140/46/86 137/45/86 149/47/86
f 140/46/86 149/47/86 151/48/86
f 151/48/86 149/47/86 148/49/86
f 151/48/86 148/49/86 150/5/86
f 150/5/86 148/49/86 152/5/86
f 139/46/87 151/48/87 144/48/87
f 151/48/87 139/46/87 140/46/87
f 152/5/84 145/49/81 147/5/84
f 145/49/81 152/5/84 148/49/81
f 149/47/88 135/45/77 143/47/88
f 135/45/77 149/47/88 137/45/77
f 142/9/89 136/9/78 138/9/78
f 136/9/78 142/9/89 141/9/89

g wing-right

v -0.977578 0.29375 -0.1400779 1 1 1
v -0.7664214 0.29375 0.07107873 1 1 1
v -1.037479 0.39375 -0.1999789 1 1 1
v -0.6250001 0.49375 0.2125001 1 1 1
v -1.013909 0.59375 -0.1764086 1 1 1
v -0.6250001 0.69375 0.2125001 1 1 1
v -1.037479 0.79375 -0.1999789 1 1 1
v -0.7664214 0.89375 0.07107873 1 1 1
v -0.977578 0.89375 -0.1400779 1 1 1
v -0.8361566 0.89375 -0.2814993 1 1 1
v -0.625 0.89375 -0.07034261 1 1 1
v -0.8960575 0.79375 -0.3414002 1 1 1
v -0.8724873 0.59375 -0.31783 1 1 1
v -0.8960575 0.39375 -0.3414002 1 1 1
v -0.8361566 0.29375 -0.2814993 1 1 1
v -0.625 0.29375 -0.07034261 1 1 1
v -0.4835787 0.69375 0.07107874 1 1 1
v -0.4835787 0.49375 0.07107874 1 1 1

vn -0.7071068 0 0.7071066
vn -0.2973319 0.9072968 -0.297332
vn 0 1 0
vn -0.6817076 0.265611 -0.6817077
vn -0.6974857 -0.164399 -0.6974859
vn -0.6817076 -0.265611 -0.6817077
vn -0.2973319 -0.9072968 -0.297332
vn 0 -1 0
vn 0.4999999 0.7071068 0.5
vn 0.4999999 -0.7071068 0.5
vn 0.7071068 0 -0.7071066
vn 0.7071066 0 0.7071068
vn -0.6974857 0.164399 -0.6974859


usemtl colormap

f 155/45/95 157/47/102 166/45/95
f 165/47/102 166/45/95 157/47/102
f 156/46/101 170/46/101 158/48/101
f 169/48/101 158/48/101 170/46/101
f 162/5/100 163/5/100 164/49/100
f 163/5/100 169/48/100 164/49/100
f 164/49/100 169/48/100 165/47/100
f 169/48/100 170/46/100 165/47/100
f 165/47/100 170/46/100 166/45/100
f 166/45/100 170/46/100 167/9/100
f 168/9/100 167/9/100 170/46/100
f 159/49/93 161/5/91 164/49/93
f 162/5/91 164/49/93 161/5/91
f 154/9/99 168/9/99 156/46/99
f 170/46/99 156/46/99 168/9/99
f 158/48/98 169/48/98 160/5/98
f 163/5/98 160/5/98 169/48/98
f 168/9/97 154/9/97 167/9/96
f 153/9/96 167/9/96 154/9/97
f 153/9/96 155/45/95 167/9/96
f 166/45/95 167/9/96 155/45/95
f 157/47/94 159/49/93 165/47/94
f 164/49/93 165/47/94 159/49/93
f 160/5/92 163/5/92 161/5/91
f 162/5/91 161/5/91 163/5/92
f 161/5/90 159/49/90 160/5/90
f 160/5/90 159/49/90 158/48/90
f 159/49/90 157/47/90 158/48/90
f 158/48/90 157/47/90 156/46/90
f 157/47/90 155/45/90 156/46/90
f 156/46/90 155/45/90 154/9/90
f 153/9/90 154/9/90 155/45/90

